<svg width="500" height="500" viewBox="0 0 500 500" fill="none" xmlns="http://www.w3.org/2000/svg">
<g clip-path="url(#clip0_165_2)">
<rect width="500" height="500" rx="250" fill="#09090B"/>
<path d="M250 42C208.861 42 168.647 54.199 134.441 77.0543C100.236 99.9097 73.5761 132.395 57.8331 170.402C42.09 208.409 37.9709 250.231 45.9967 290.579C54.0224 330.927 73.8325 367.989 102.922 397.078C132.011 426.168 169.073 445.978 209.421 454.003C249.769 462.029 291.591 457.91 329.598 442.167C367.605 426.424 400.09 399.764 422.946 365.559C445.801 331.353 458 291.139 458 250C457.942 194.853 436.009 141.981 397.014 102.986C358.019 63.9912 305.147 42.0582 250 42ZM413.48 315.16C386.178 333.876 354.152 344.513 321.078 345.85C288.004 347.187 255.224 339.17 226.5 322.72L259.24 266H425.24C423.729 282.871 419.768 299.432 413.48 315.16ZM176.24 90.22C191.606 83.1035 207.922 78.253 224.68 75.82C254.537 90.1139 279.757 112.538 297.446 140.518C315.134 168.497 324.574 200.898 324.68 234H259.24L176.24 90.22ZM425.26 234H356.74C356.64 204.329 350.204 175.022 337.863 148.039C325.522 121.056 307.56 97.0205 285.18 77.54C322.217 85.157 355.825 104.476 381.047 132.647C406.269 160.818 421.769 196.35 425.26 234ZM148.54 106.26L182.78 165.56C157.133 180.475 134.969 200.698 117.771 224.873C100.573 249.049 88.7387 276.62 83.06 305.74C71.0799 269.869 70.98 231.092 82.7749 195.159C94.5698 159.227 117.632 128.053 148.54 106.26ZM111.8 358.86C109.271 325.875 116.09 292.846 131.475 263.56C146.859 234.273 170.186 209.916 198.78 193.28L231.52 250L148.54 393.74C134.686 383.933 122.313 372.186 111.8 358.86ZM250 426C224.526 426.026 199.353 420.491 176.24 409.78L210.5 350.44C236.214 365.165 264.771 374.238 294.268 377.056C323.765 379.874 353.524 376.37 381.56 366.78C365.075 385.404 344.822 400.314 322.142 410.523C299.462 420.733 274.872 426.008 250 426Z" fill="#FAFAFA"/>
</g>
<defs>
<clipPath id="clip0_165_2">
<rect width="500" height="500" rx="250" fill="white"/>
</clipPath>
</defs>
</svg>
